<svg width="541" height="541" viewBox="0 0 541 541" fill="none" xmlns="http://www.w3.org/2000/svg">
<rect width="540.266" height="540.266" fill="white"/>
<path d="M270.537 40.3941C270.788 40.3854 270.982 40.3961 271.6 40.3922C329.189 42.4093 382.723 70.2805 415.865 117.68C444.927 159.123 457.499 211.514 450.757 263.12C441.01 339.291 393.625 413.238 338.372 457.92C302.136 487.206 289.037 500.39 273.037 500.39C257.037 500.39 233.647 479.177 211.037 460.904C155.785 416.222 100.064 339.37 90.3179 263.199C83.5754 211.593 90.9736 159.123 120.035 117.68C153.636 69.624 191.684 43.5368 270.537 40.3941Z" fill="#FFC752"/>
<g filter="url(#filter0_i_210_376)">
<path d="M266.313 116.056C330.364 114.11 383.894 163.15 385.845 225.56C387.795 287.97 337.426 340.094 273.373 341.949C209.384 343.801 155.957 294.786 154.008 232.439C152.059 170.093 202.327 118 266.313 116.056Z" fill="#8CDD88"/>
<path d="M284.362 117.109C300.579 119.002 316.203 124.214 330.198 132.403C332.787 133.919 336.509 136.185 338.795 138.062C338.705 141.249 338.287 143.764 336.682 146.627C331.646 155.608 326.85 143.848 317.959 146.807C311.826 148.849 307.527 153.181 304.559 158.91C302.367 163.136 298.295 172.44 298.572 177.2C298.673 178.911 300.371 180.957 301.651 182.084C302.566 182.892 305.228 184.634 305.512 185.537C304.382 187.153 301.015 187.604 299.107 187.523C295.977 187.389 293.404 185.398 292.09 182.702C291.406 181.107 290.891 179.712 289.789 178.358C288.548 176.836 285.458 177.455 284.465 178.788C281.39 182.918 287.644 189.556 287.349 194.302C286.95 200.707 281.324 204.834 280.92 211.134C280.818 213.995 285.234 215.672 287.727 215.554L287.872 216.177C282.123 218.734 281.448 222.846 278.946 227.626C278.301 228.858 275.743 231.305 274.79 232.907C272.737 236.358 272.679 240.884 273.782 244.606C275.683 251.013 278.642 257.924 286.496 258.372C290.389 258.588 294.203 258.145 298.117 258.244C300.472 258.303 304.768 258.639 305.659 261.297C306.392 263.483 306.676 266.013 307.345 268.269C308.168 270.927 309.225 273.862 310.326 276.425C311.766 279.779 309.838 281.269 309.871 284.402C309.903 287.492 310.736 290.965 311.249 294.034C311.926 297.279 312.321 300.799 313.225 303.982C314.708 309.204 315.575 311.197 321.472 309.298C330.884 306.269 333.885 295.793 338.586 288.32C340.171 285.801 342.314 283.017 343.446 280.262C344.532 275.718 343.197 272.451 345.651 267.909C348.611 262.425 352.845 257.877 356.02 252.528C356.761 251.28 357.482 249.521 357.029 248.081C354.599 247.932 352.612 248.878 349.867 248.51C346.1 248.006 346.085 245.777 344.235 242.946C341.545 238.721 339.129 234.325 336.864 229.872C336.065 228.298 331.926 222.895 334.396 221.872C338.139 222.178 344.53 242.449 348.993 246.441L349.183 246.607C353.835 245.836 359.466 243.028 363.222 240.235C364.778 239.078 367.927 234.839 368.109 233.078C367.916 232.711 367.852 232.587 367.415 232.398C363.334 230.62 358.92 229.026 355.614 225.988C354.975 225.401 354.311 223.939 355.153 223.272C356.819 223.272 359.107 225.213 360.844 225.688C363.391 226.384 366.039 226.574 368.645 227.028C375.702 228.258 381.05 231.437 386.274 236.027C385.84 243.227 384.688 250.371 382.83 257.354C375.072 286.433 355.745 311.323 329.106 326.537C302.568 341.642 270.953 345.892 241.198 338.353C240.714 333.339 237.985 327.106 238.523 321.452C239.091 315.471 242.685 309.892 245.446 304.569C249.388 297.162 252.292 289.113 253.117 280.776C253.32 278.727 254.159 275.186 252.325 273.771C248.906 271.135 244.379 269.495 240.427 267.669C238.114 266.596 235.842 265.441 233.617 264.203C231.531 263.046 229.497 261.801 227.523 260.469C223.108 257.447 218.6 253.928 213.503 252.014C209.417 250.481 205.552 251.314 201.355 251.515C197.993 251.676 195.858 249.04 193.554 246.797C196.032 246.095 205.763 246.125 205.848 244.379C204.319 241.993 195.008 239.292 192.042 238.405C188.551 237.363 183.531 235.934 179.965 237.111C178.787 237.5 177.502 238.195 176.385 238.778C172.101 235.109 175.134 232.049 177.586 229.006C186.139 218.387 191.578 235.676 196.075 233.042C197.844 230.709 194.75 225.717 194.586 222.774C194.869 212.854 208.831 206.377 216.914 202.998C220.737 201.399 231.181 201.492 232.819 198.936C237.644 191.406 229.483 174.22 223.687 168.748C217.227 162.648 211.12 182.848 206.803 183.601C203.429 182.538 204.54 170.834 204.73 167.826C205.379 159.253 211.237 161.809 217.041 162.074C221.95 162.298 223.687 162.175 228.435 164.305C232.28 166.03 234.467 162.315 235.39 158.854C236.444 154.808 235.795 150.52 233.588 146.94C231.749 143.921 228.441 141.23 224.904 140.472C217.745 138.937 211.027 145.371 205.714 148.574C206.704 147.099 208.257 145.14 209.619 143.594C214.944 137.549 221.037 127.755 229.784 126.526C233.03 126.07 234.697 130.268 236.569 132.019C239.673 134.923 243.69 129.407 245.523 127.32C245.027 130.552 245.651 132.24 247.179 134.969C253.417 146.107 244.712 154.776 243.443 165.576C243.091 168.577 244.143 173.691 246.088 176.281C250.558 182.232 253.159 173.873 254.636 170.799C255.222 169.57 255.918 168.394 256.715 167.283C259.823 162.998 267.481 160.488 271.895 157.016C276.532 153.536 283.097 147.829 283.689 141.61C284.46 133.522 283.168 125.413 284.362 117.109Z" fill="#71ACFE"/>
</g>
<path d="M376.097 47.5605C382.274 28.3412 409.468 28.3412 415.646 47.5605L433.623 103.491C434.243 105.419 435.753 106.929 437.681 107.549L493.611 125.526C512.831 131.704 512.831 158.898 493.611 165.075L437.681 183.053C435.753 183.672 434.243 185.183 433.623 187.11L415.646 243.041C409.468 262.26 382.274 262.26 376.097 243.041L358.119 187.11C357.5 185.183 355.989 183.672 354.062 183.053L298.131 165.075C278.911 158.897 278.912 131.704 298.131 125.526L354.062 107.549C355.989 106.929 357.5 105.419 358.119 103.491L376.097 47.5605Z" fill="#A990FE" stroke="white" stroke-width="14.4899"/>
<defs>
<filter id="filter0_i_210_376" x="153.953" y="116" width="232.32" height="226" filterUnits="userSpaceOnUse" color-interpolation-filters="sRGB">
<feFlood flood-opacity="0" result="BackgroundImageFix"/>
<feBlend mode="normal" in="SourceGraphic" in2="BackgroundImageFix" result="shape"/>
<feColorMatrix in="SourceAlpha" type="matrix" values="0 0 0 0 0 0 0 0 0 0 0 0 0 0 0 0 0 0 127 0" result="hardAlpha"/>
<feOffset/>
<feGaussianBlur stdDeviation="18.787"/>
<feComposite in2="hardAlpha" operator="arithmetic" k2="-1" k3="1"/>
<feColorMatrix type="matrix" values="0 0 0 0 0 0 0 0 0 0 0 0 0 0 0 0 0 0 0.75 0"/>
<feBlend mode="normal" in2="shape" result="effect1_innerShadow_210_376"/>
</filter>
</defs>
</svg>
