<svg width="846" height="711" viewBox="0 0 846 711" fill="none" xmlns="http://www.w3.org/2000/svg">
<path d="M182.803 253.002C203.019 253.71 222.734 257.618 241.233 264.45C222.32 280.3 223.553 313.615 249.602 325.604L317.169 356.702L331.246 429.642C334.602 447.03 348.11 457.163 362.638 458.937C362.351 464.212 361.869 469.491 361.181 474.761C351.477 550.601 304.296 624.227 249.284 668.714C213.206 697.872 200.164 710.999 184.233 711C168.303 711 145.014 689.88 122.503 671.686C67.4906 627.199 12.0119 550.679 2.30766 474.839C-4.40542 423.458 2.96128 371.216 31.8965 329.954C65.3516 282.106 103.234 256.132 181.744 253.004C181.994 252.995 182.187 253.005 182.803 253.002Z" fill="#FFC752"/>
<g filter="url(#filter0_i_210_364)">
<path d="M177.234 327.056C241.813 325.094 295.784 374.538 297.75 437.462C299.716 500.386 248.933 552.939 184.353 554.81C119.836 556.677 65.9692 507.258 64.0045 444.398C62.0399 381.538 112.721 329.016 177.234 327.056Z" fill="#8CDD88"/>
<path d="M194.179 327.699C210.53 329.607 226.282 334.863 240.393 343.119C243.002 344.647 246.755 346.932 249.06 348.824C248.969 352.038 248.548 354.573 246.93 357.46C241.852 366.515 237.017 354.658 228.052 357.642C221.87 359.7 217.535 364.068 214.542 369.844C212.332 374.105 208.227 383.486 208.506 388.284C208.608 390.01 210.319 392.072 211.61 393.209C212.533 394.023 215.217 395.78 215.503 396.69C214.364 398.32 210.97 398.774 209.046 398.692C205.89 398.558 203.295 396.55 201.971 393.832C201.281 392.223 200.761 390.817 199.651 389.452C198.4 387.917 195.284 388.541 194.283 389.886C191.182 394.049 197.488 400.743 197.19 405.527C196.789 411.986 191.116 416.146 190.708 422.498C190.606 425.383 195.058 427.073 197.571 426.955L197.717 427.583C191.921 430.161 191.241 434.307 188.718 439.125C188.068 440.368 185.489 442.835 184.528 444.45C182.458 447.929 182.399 452.493 183.512 456.245C185.428 462.705 188.411 469.673 196.33 470.125C200.255 470.342 204.101 469.896 208.047 469.996C210.422 470.055 214.753 470.394 215.651 473.074C216.39 475.278 216.676 477.829 217.351 480.103C218.181 482.783 219.246 485.743 220.357 488.327C221.809 491.709 219.864 493.211 219.898 496.37C219.931 499.484 220.77 502.986 221.288 506.081C221.97 509.352 222.368 512.902 223.28 516.11C224.775 521.376 225.649 523.385 231.594 521.47C241.084 518.416 244.109 507.854 248.85 500.319C250.447 497.78 252.608 494.973 253.749 492.195C254.844 487.613 253.499 484.32 255.972 479.74C258.957 474.211 263.226 469.626 266.427 464.233C267.174 462.974 267.901 461.201 267.445 459.749C264.994 459.6 262.991 460.552 260.223 460.182C256.425 459.673 256.41 457.427 254.545 454.572C251.833 450.312 249.397 445.88 247.113 441.39C246.308 439.804 242.134 434.356 244.625 433.324C248.398 433.633 254.843 454.07 259.342 458.096L259.533 458.263C264.224 457.486 269.901 454.655 273.688 451.839C275.257 450.672 278.432 446.398 278.616 444.623C278.42 444.253 278.356 444.127 277.916 443.937C273.801 442.144 269.351 440.537 266.017 437.474C265.373 436.882 264.704 435.408 265.553 434.736C267.232 434.736 269.539 436.693 271.29 437.172C273.858 437.874 276.529 438.066 279.156 438.523C286.271 439.763 291.663 442.968 296.93 447.596C296.492 454.856 295.331 462.058 293.458 469.098C285.636 498.417 266.15 523.512 239.291 538.851C212.535 554.08 180.659 558.365 150.66 550.765C150.172 545.709 147.42 539.425 147.962 533.724C148.535 527.694 152.158 522.069 154.943 516.702C158.917 509.234 161.845 501.119 162.677 492.713C162.881 490.647 163.728 487.077 161.878 485.651C158.431 482.993 153.867 481.34 149.882 479.499C147.55 478.417 145.26 477.252 143.017 476.004C140.913 474.838 138.862 473.583 136.872 472.239C132.421 469.192 127.876 465.645 122.736 463.715C118.616 462.169 114.72 463.009 110.489 463.212C107.099 463.374 104.946 460.716 102.623 458.455C105.122 457.747 114.933 457.777 115.019 456.017C113.477 453.612 104.089 450.888 101.098 449.994C97.5787 448.943 92.5174 447.502 88.9228 448.689C87.7346 449.081 86.4391 449.782 85.3127 450.37C80.9935 446.671 84.052 443.585 86.5233 440.517C95.147 429.81 100.631 447.242 105.165 444.586C106.948 442.234 103.83 437.201 103.664 434.234C103.949 424.232 118.026 417.702 126.176 414.295C130.03 412.683 140.56 412.777 142.211 410.2C147.077 402.608 138.848 385.28 133.004 379.763C126.491 373.613 120.334 393.979 115.981 394.738C112.579 393.666 113.7 381.867 113.892 378.834C114.545 370.189 120.452 372.767 126.303 373.034C131.253 373.26 133.004 373.136 137.792 375.284C141.668 377.023 143.873 373.277 144.804 369.788C145.866 365.708 145.212 361.385 142.986 357.775C141.132 354.731 137.798 352.019 134.231 351.254C127.013 349.706 120.24 356.194 114.883 359.422C115.881 357.935 117.447 355.961 118.82 354.402C124.189 348.307 130.332 338.433 139.152 337.193C142.424 336.734 144.105 340.966 145.992 342.731C149.122 345.659 153.172 340.098 155.021 337.994C154.52 341.253 155.149 342.955 156.689 345.706C162.979 356.935 154.203 365.676 152.923 376.564C152.568 379.59 153.628 384.747 155.59 387.358C160.096 393.359 162.719 384.93 164.208 381.831C164.799 380.592 165.5 379.406 166.304 378.286C169.437 373.966 177.159 371.435 181.609 367.934C186.285 364.426 192.903 358.672 193.5 352.401C194.277 344.247 192.975 336.072 194.179 327.699Z" fill="#71ACFE"/>
</g>
<path d="M810.275 411.143H772.643L804.003 302.208C804.663 299.567 804.994 297.257 804.994 294.946C804.994 283.722 796.411 277.45 782.216 277.45C755.478 277.45 743.264 297.917 737.322 318.713L710.913 411.143H673.281L720.486 246.09H756.798L752.837 259.955C769.342 249.391 787.828 242.789 806.314 242.789C833.383 242.789 845.597 260.945 845.597 281.081C845.597 286.363 844.606 292.305 842.626 298.907L810.275 411.143Z" fill="black"/>
<path d="M316.574 0H354.206L292.476 224.472H254.844L316.574 0Z" fill="url(#paint0_linear_210_364)"/>
<path d="M87.0078 224.472L151.378 0H231.924C267.246 0 283.421 20.7967 283.421 47.5353C283.421 97.0511 241.827 131.712 183.729 131.712H153.029L131.902 205.326C129.591 213.248 128.271 218.86 128.931 224.472H87.0078ZM216.079 37.302H180.098L163.592 94.4103H198.584C225.322 94.4103 240.177 77.905 240.177 58.0986C240.177 44.8944 231.594 37.302 216.079 37.302Z" fill="black"/>
<path d="M671.452 183.273H711.534L699.786 223.115H659.703L671.452 183.273ZM652.793 246.356H692.875L643.809 412.364H603.727L652.793 246.356Z" fill="black"/>
<path d="M379.875 182.133C387.129 166.712 409.872 169.559 413.102 186.292L427.448 260.626C428.524 266.2 432.22 270.913 437.377 273.287L505.443 304.615C520.992 311.771 518.224 334.661 501.418 337.904L427.845 352.103C422.272 353.179 417.558 356.875 415.185 362.032L383.857 430.099C376.7 445.648 353.811 442.879 350.567 426.073L336.368 352.5C335.293 346.927 331.596 342.213 326.44 339.84L258.286 308.472C242.745 301.319 245.5 278.445 262.294 275.186L334.739 261.128C340.254 260.058 344.928 256.42 347.32 251.336L379.875 182.133Z" fill="#A990FE"/>
<path d="M549.965 243C586.606 243 608.393 268.088 608.394 304.399C608.394 358.537 561.519 414.655 502.1 414.655C482.954 414.655 470.74 408.713 464.798 403.432L446.312 470.773H410L437.803 369.671L482.47 361.051C487.221 372.167 497.724 378.344 512.003 378.344C544.353 378.344 570.762 347.974 570.762 311.662C570.762 291.196 558.217 279.312 538.411 279.312C528.846 279.312 519.703 282.079 511.598 286.94L466.288 266.086L471.729 246.301H506.721L502.43 260.826C510.682 252.904 529.498 243 549.965 243Z" fill="url(#paint1_linear_210_364)"/>
<path d="M600.542 56C627.61 56.0002 639.824 74.1559 639.824 94.292C639.824 99.5736 638.834 105.516 636.854 112.118L604.503 224.354H566.871L598.231 115.419C598.892 112.778 599.222 110.468 599.222 108.157C599.222 96.9338 590.639 90.6613 576.444 90.6611C549.706 90.6611 537.492 111.128 531.55 131.925L505.142 224.354H476.802C471.472 225.674 466.109 226.335 460.965 226.335C452.961 226.335 445.599 225.875 439.701 223.12L431.892 182.653C431.347 179.833 430.533 177.203 429.492 174.769C431.433 171.439 432.909 168.096 433.896 164.936L439.178 148.43H423.663C382.432 148.43 367.174 161.529 363.132 173.904C363.111 173.949 363.089 173.993 363.068 174.038L341.067 220.803C328.266 213.819 321 201.788 321 186.062C321 151.731 354.011 120.041 417.721 120.041H446.44L449.081 111.458C454.363 93.9627 443.799 82.4084 423.993 82.4082C403.527 82.4082 389.001 94.2925 384.38 112.118H343.447C355.331 73.826 395.274 56 435.877 56C481.431 56.0002 496.616 79.1081 487.373 108.817L466.576 175.498C464.168 183.626 468.348 189.009 477.365 189.894L514.715 59.3008H551.026L547.064 73.166C563.57 62.6028 582.056 56 600.542 56Z" fill="url(#paint2_linear_210_364)"/>
<defs>
<filter id="filter0_i_210_364" x="63.9492" y="327" width="233.855" height="227.859" filterUnits="userSpaceOnUse" color-interpolation-filters="sRGB">
<feFlood flood-opacity="0" result="BackgroundImageFix"/>
<feBlend mode="normal" in="SourceGraphic" in2="BackgroundImageFix" result="shape"/>
<feColorMatrix in="SourceAlpha" type="matrix" values="0 0 0 0 0 0 0 0 0 0 0 0 0 0 0 0 0 0 127 0" result="hardAlpha"/>
<feOffset/>
<feGaussianBlur stdDeviation="19.6748"/>
<feComposite in2="hardAlpha" operator="arithmetic" k2="-1" k3="1"/>
<feColorMatrix type="matrix" values="0 0 0 0 0 0 0 0 0 0 0 0 0 0 0 0 0 0 0.75 0"/>
<feBlend mode="normal" in2="shape" result="effect1_innerShadow_210_364"/>
</filter>
<linearGradient id="paint0_linear_210_364" x1="271.5" y1="90.5" x2="299.5" y2="221.5" gradientUnits="userSpaceOnUse">
<stop stop-color="#010101"/>
<stop offset="1" stop-color="#A990FE"/>
</linearGradient>
<linearGradient id="paint1_linear_210_364" x1="579.5" y1="363.5" x2="456" y2="315.5" gradientUnits="userSpaceOnUse">
<stop/>
<stop offset="1" stop-color="#A990FE"/>
</linearGradient>
<linearGradient id="paint2_linear_210_364" x1="448.5" y1="83.5" x2="402" y2="233.5" gradientUnits="userSpaceOnUse">
<stop/>
<stop offset="1" stop-color="#A990FE"/>
</linearGradient>
</defs>
</svg>
